<svg width="50" height="48" viewBox="0 0 50 48" fill="none" xmlns="http://www.w3.org/2000/svg">
<path d="M24.7142 0L46.1173 11.8753V35.626L24.7142 47.5014L3.31107 35.626V11.8753L24.7142 0Z" fill="#065E7C"/>
<path d="M15.0087 21H34.9912C35.2906 21.0015 35.5865 20.9358 35.8571 20.8077C36.1277 20.6796 36.3661 20.4924 36.5546 20.2599C36.7432 20.0274 36.8772 19.7556 36.9467 19.4644C37.0162 19.1732 37.0195 18.8701 36.9562 18.5775C36.0275 14.1875 31 11 25 11C19 11 13.9725 14.1875 13.0437 18.5775C12.9805 18.8701 12.9838 19.1732 13.0533 19.4644C13.1228 19.7556 13.2568 20.0274 13.4454 20.2599C13.6339 20.4924 13.8723 20.6796 14.1429 20.8077C14.4135 20.9358 14.7094 21.0015 15.0087 21ZM25 13C29.9775 13 34.2762 15.5763 34.9912 19H15.0087L15 18.9913C15.7237 15.5763 20.0225 13 25 13ZM37.6575 27.06L32.5163 28.935L27.875 27.0713C27.6367 26.976 27.3708 26.976 27.1325 27.0713L22.5075 28.9225L17.875 27.0713C17.6469 26.9801 17.3933 26.9761 17.1625 27.06L11.6625 29.06C11.43 29.1623 11.2452 29.3493 11.1456 29.5829C11.0459 29.8165 11.0389 30.0792 11.1259 30.3179C11.2129 30.5565 11.3874 30.753 11.6141 30.8676C11.8407 30.9823 12.1025 31.0063 12.3463 30.935L14 30.3363V31C14 32.3261 14.5268 33.5979 15.4645 34.5355C16.4021 35.4732 17.6739 36 19 36H31C32.3261 36 33.5979 35.4732 34.5355 34.5355C35.4732 33.5979 36 32.3261 36 31V29.7913L38.3412 28.94C38.4725 28.9016 38.5945 28.8366 38.6997 28.7492C38.8049 28.6617 38.891 28.5536 38.9528 28.4315C39.0145 28.3095 39.0505 28.176 39.0586 28.0395C39.0667 27.9029 39.0467 27.7662 38.9999 27.6377C38.953 27.5091 38.8803 27.3916 38.7862 27.2923C38.6921 27.1931 38.5786 27.1141 38.4528 27.0605C38.3269 27.0068 38.1914 26.9795 38.0547 26.9803C37.9179 26.9811 37.7827 27.0099 37.6575 27.065V27.06ZM34 31C34 31.7956 33.6839 32.5587 33.1213 33.1213C32.5587 33.6839 31.7956 34 31 34H19C18.2044 34 17.4413 33.6839 16.8787 33.1213C16.3161 32.5587 16 31.7956 16 31V29.61L17.4838 29.07L22.125 30.9287C22.3633 31.024 22.6292 31.024 22.8675 30.9287L27.4925 29.0775L32.1175 30.9287C32.3456 31.0199 32.5992 31.0239 32.83 30.94L33.9888 30.5187L34 31ZM11 24C11 23.7348 11.1054 23.4804 11.2929 23.2929C11.4804 23.1054 11.7348 23 12 23H38C38.2652 23 38.5196 23.1054 38.7071 23.2929C38.8946 23.4804 39 23.7348 39 24C39 24.2652 38.8946 24.5196 38.7071 24.7071C38.5196 24.8946 38.2652 25 38 25H12C11.7348 25 11.4804 24.8946 11.2929 24.7071C11.1054 24.5196 11 24.2652 11 24Z" fill="black"/>
</svg>

